<svg width="366" height="134" viewBox="0 0 366 134" fill="none" xmlns="http://www.w3.org/2000/svg">
<path d="M183 134C269.709 134 340 104.003 340 67C340 29.9969 269.709 0 183 0C108.793 0 46.6112 21.9703 30.2224 51.5C26.4816 54.6667 15.2 61.2 0 62L27.1076 75C36.373 108.232 102.635 134 183 134Z" fill="#89C5CC" fill-opacity="0.2"/>
<path d="M30.5455 51.8816L30.6153 51.8226L30.6596 51.7426C38.7619 37.1437 58.2558 24.3215 85.0912 15.1495C111.901 5.98628 145.942 0.5 183 0.5C226.303 0.5 265.484 7.9914 293.82 20.0837C307.988 26.1303 319.422 33.3173 327.307 41.2725C335.19 49.2257 339.5 57.9191 339.5 67C339.5 76.0809 335.19 84.7743 327.307 92.7274C319.422 100.683 307.988 107.87 293.82 113.916C265.484 126.009 226.303 133.5 183 133.5C142.866 133.5 106.271 127.065 78.5697 116.495C64.7186 111.21 53.1061 104.896 44.3876 97.8495C35.667 90.801 29.8686 83.041 27.5892 74.8657L27.5283 74.6472L27.3238 74.5492L1.92512 62.3687C16.2816 61.1492 26.8873 54.9784 30.5455 51.8816Z" stroke="#89C5CC" stroke-opacity="0.4"/>
<path d="M108.046 70.1465C107.187 70.1465 106.462 69.9756 105.871 69.6338C105.285 69.292 104.843 68.8086 104.545 68.1836C104.248 67.5586 104.099 66.8237 104.099 65.979C104.099 65.3687 104.152 64.7778 104.26 64.2065C104.372 63.6353 104.533 63.0957 104.743 62.5879C104.953 62.0752 105.212 61.6089 105.52 61.189C105.832 60.7642 106.188 60.3979 106.589 60.0903C106.989 59.7827 107.431 59.5459 107.915 59.3799C108.403 59.209 108.93 59.1235 109.497 59.1235C110.698 59.1235 111.635 59.4971 112.309 60.2441C112.988 60.9863 113.327 62.019 113.327 63.3423C113.327 63.9331 113.278 64.5117 113.181 65.0781C113.083 65.6396 112.937 66.1743 112.741 66.6821C112.546 67.1899 112.302 67.6562 112.009 68.0811C111.716 68.501 111.374 68.8647 110.983 69.1724C110.593 69.48 110.153 69.7192 109.665 69.8901C109.177 70.061 108.637 70.1465 108.046 70.1465ZM108.09 69.0552C108.51 69.0552 108.898 68.9819 109.255 68.8354C109.611 68.689 109.934 68.4839 110.222 68.2202C110.515 67.9565 110.771 67.6465 110.991 67.29C111.215 66.9336 111.403 66.543 111.555 66.1182C111.706 65.6885 111.821 65.2368 111.899 64.7632C111.977 64.2896 112.016 63.8062 112.016 63.313C112.016 62.3364 111.784 61.5771 111.32 61.0352C110.861 60.4932 110.224 60.2222 109.409 60.2222C108.989 60.2222 108.598 60.293 108.237 60.4346C107.875 60.5713 107.546 60.769 107.248 61.0278C106.95 61.2817 106.687 61.5845 106.457 61.936C106.232 62.2876 106.042 62.6782 105.886 63.1079C105.729 63.5327 105.61 63.9844 105.527 64.4629C105.449 64.9414 105.41 65.437 105.41 65.9497C105.41 66.5942 105.515 67.1484 105.725 67.6123C105.935 68.0762 106.24 68.4326 106.64 68.6816C107.041 68.9307 107.524 69.0552 108.09 69.0552ZM114.243 70L116.66 58.6035H117.891L116.895 63.2544C116.787 63.7622 116.687 64.1968 116.594 64.5581C116.502 64.9194 116.421 65.2148 116.353 65.4443C116.284 65.6689 116.233 65.8423 116.199 65.9644H116.228L120.183 61.9727H121.626L118.154 65.4224L120.315 70H118.967L117.231 66.1841L116.067 67.1289L115.481 70H114.243ZM124.095 70.1465C123.66 70.1465 123.279 70.0415 122.952 69.8315C122.625 69.6216 122.371 69.3115 122.191 68.9014C122.01 68.4912 121.92 67.9907 121.92 67.3999C121.92 66.8091 121.981 66.2402 122.103 65.6934C122.23 65.1465 122.408 64.6387 122.637 64.1699C122.867 63.7012 123.143 63.291 123.465 62.9395C123.792 62.5879 124.158 62.3145 124.564 62.1191C124.969 61.9238 125.406 61.8262 125.875 61.8262C126.236 61.8262 126.548 61.8945 126.812 62.0312C127.081 62.168 127.303 62.3486 127.479 62.5732C127.659 62.793 127.801 63.0273 127.903 63.2764H127.977L128.445 61.9727H129.376L127.676 70H126.702L126.922 68.4473H126.863C126.644 68.7402 126.392 69.0161 126.109 69.2749C125.826 69.5337 125.516 69.7437 125.179 69.9048C124.842 70.0659 124.481 70.1465 124.095 70.1465ZM124.49 69.1357C124.866 69.1357 125.237 68.999 125.604 68.7256C125.975 68.4473 126.307 68.0737 126.6 67.605C126.898 67.1313 127.125 66.5991 127.281 66.0083C127.359 65.7202 127.41 65.4565 127.435 65.2173C127.464 64.9731 127.479 64.7461 127.479 64.5361C127.479 64.0332 127.344 63.6279 127.076 63.3203C126.812 63.0078 126.451 62.8516 125.992 62.8516C125.665 62.8516 125.357 62.9346 125.069 63.1006C124.781 63.2617 124.52 63.4888 124.285 63.7817C124.056 64.0698 123.858 64.4067 123.692 64.7925C123.526 65.1733 123.397 65.5884 123.304 66.0376C123.216 66.4868 123.172 66.9482 123.172 67.4219C123.172 67.9834 123.287 68.4106 123.516 68.7036C123.746 68.9917 124.07 69.1357 124.49 69.1357ZM129.274 73.6108C129.034 73.6108 128.841 73.5962 128.695 73.5669C128.544 73.5376 128.397 73.501 128.255 73.457V72.4683C128.387 72.5024 128.534 72.5317 128.695 72.5562C128.856 72.5854 129.027 72.6001 129.208 72.6001C129.608 72.6001 129.952 72.4731 130.24 72.2192C130.528 71.9653 130.809 71.5918 131.083 71.0986L131.647 70.0952L130.416 61.9727H131.647L132.203 66.0962C132.252 66.4185 132.291 66.7651 132.32 67.1362C132.35 67.5024 132.372 67.8516 132.386 68.1836C132.401 68.5107 132.408 68.7769 132.408 68.9819H132.452C132.521 68.8208 132.623 68.5889 132.76 68.2861C132.897 67.9785 133.043 67.6587 133.199 67.3267C133.356 66.9946 133.495 66.7163 133.617 66.4917L136.026 61.9727H137.33L132.189 71.3916C131.925 71.8799 131.654 72.2876 131.376 72.6147C131.102 72.9468 130.797 73.1958 130.46 73.3618C130.123 73.5278 129.728 73.6108 129.274 73.6108ZM135.99 71.9336C136.176 71.5283 136.359 71.1084 136.54 70.6738C136.72 70.2441 136.891 69.8218 137.052 69.4067C137.214 68.9917 137.358 68.6084 137.485 68.2568H138.803L138.861 68.4253C138.7 68.7817 138.512 69.1626 138.298 69.5679C138.088 69.9731 137.863 70.3784 137.624 70.7837C137.389 71.189 137.155 71.5723 136.921 71.9336H135.99ZM147.205 70.1465C146.765 70.1465 146.382 70.0439 146.055 69.8389C145.728 69.6338 145.474 69.3286 145.293 68.9233C145.113 68.5132 145.022 68.0054 145.022 67.3999C145.022 66.8237 145.081 66.2646 145.198 65.7227C145.315 65.1758 145.484 64.668 145.703 64.1992C145.928 63.7305 146.201 63.3203 146.524 62.9688C146.846 62.6123 147.212 62.3364 147.622 62.1411C148.037 61.9409 148.491 61.8408 148.985 61.8408C149.361 61.8408 149.683 61.9092 149.951 62.0459C150.22 62.1826 150.442 62.3608 150.618 62.5806C150.799 62.7954 150.94 63.0273 151.043 63.2764H151.116C151.145 63.0518 151.175 62.8345 151.204 62.6245C151.233 62.4097 151.267 62.1924 151.306 61.9727C151.35 61.7529 151.399 61.5259 151.453 61.2915L152.017 58.6035H153.225L150.808 70H149.805L150.003 68.4473H149.951C149.717 68.75 149.461 69.0308 149.182 69.2896C148.909 69.5483 148.609 69.7559 148.281 69.9121C147.954 70.0684 147.595 70.1465 147.205 70.1465ZM147.615 69.1357C147.844 69.1357 148.076 69.0796 148.311 68.9673C148.55 68.855 148.782 68.6963 149.007 68.4912C149.231 68.2812 149.441 68.0347 149.636 67.7515C149.832 67.4683 150.003 67.1558 150.149 66.814C150.301 66.4722 150.418 66.1108 150.501 65.73C150.584 65.3491 150.625 64.9561 150.625 64.5508C150.625 64.0332 150.501 63.6206 150.252 63.313C150.003 63.0054 149.605 62.8516 149.058 62.8516C148.721 62.8516 148.408 62.937 148.12 63.1079C147.837 63.2788 147.581 63.5132 147.351 63.811C147.122 64.1089 146.927 64.4531 146.765 64.8438C146.609 65.2295 146.487 65.6445 146.399 66.0889C146.316 66.5283 146.275 66.9727 146.275 67.4219C146.275 67.9834 146.387 68.4106 146.612 68.7036C146.836 68.9917 147.171 69.1357 147.615 69.1357ZM156.69 70.1172C156.075 70.1172 155.545 69.9927 155.101 69.7437C154.657 69.4897 154.315 69.1333 154.075 68.6743C153.841 68.2104 153.724 67.6636 153.724 67.0337C153.724 66.5259 153.78 66.0254 153.892 65.5322C154.005 65.0342 154.171 64.5654 154.39 64.126C154.61 63.6816 154.881 63.291 155.203 62.9541C155.531 62.6123 155.907 62.3462 156.331 62.1558C156.756 61.9604 157.23 61.8628 157.752 61.8628C158.377 61.8628 158.909 61.9897 159.349 62.2437C159.793 62.4927 160.133 62.8491 160.367 63.313C160.606 63.7769 160.726 64.3262 160.726 64.9609C160.726 65.459 160.67 65.9546 160.557 66.4478C160.45 66.9409 160.286 67.4097 160.067 67.854C159.852 68.2935 159.581 68.6841 159.254 69.0259C158.931 69.3628 158.555 69.6289 158.126 69.8242C157.701 70.0195 157.222 70.1172 156.69 70.1172ZM156.763 69.1064C157.066 69.1064 157.354 69.043 157.628 68.916C157.901 68.7891 158.15 68.606 158.375 68.3667C158.599 68.1226 158.792 67.8271 158.953 67.4805C159.119 67.1289 159.246 66.731 159.334 66.2866C159.427 65.8423 159.473 65.354 159.473 64.8218C159.473 64.5044 159.417 64.1968 159.305 63.8989C159.193 63.6011 159.012 63.3569 158.763 63.1665C158.514 62.9712 158.182 62.8735 157.767 62.8735C157.425 62.8735 157.108 62.9443 156.815 63.0859C156.527 63.2275 156.268 63.4277 156.038 63.6865C155.809 63.9453 155.614 64.2505 155.452 64.6021C155.296 64.9536 155.174 65.3394 155.086 65.7593C155.003 66.1792 154.962 66.6211 154.962 67.085C154.962 67.7246 155.118 68.2227 155.43 68.5791C155.743 68.9307 156.187 69.1064 156.763 69.1064ZM161.84 70L163.561 61.936H164.638L164.447 63.4814H164.462C164.647 63.2275 164.869 62.9712 165.128 62.7124C165.392 62.4487 165.697 62.229 166.044 62.0532C166.395 61.8726 166.793 61.7822 167.238 61.7822C167.667 61.7822 168.036 61.8628 168.344 62.0239C168.651 62.1802 168.888 62.4097 169.054 62.7124C169.22 63.0103 169.303 63.3716 169.303 63.7964C169.303 64.021 169.286 64.248 169.252 64.4775C169.218 64.707 169.181 64.9121 169.142 65.0928L168.073 70H166.776L167.86 64.9316C167.904 64.7119 167.938 64.5239 167.963 64.3677C167.992 64.2114 168.007 64.0649 168.007 63.9282C168.007 63.5864 167.914 63.3276 167.728 63.1519C167.543 62.9761 167.269 62.8882 166.908 62.8882C166.552 62.8882 166.176 63.0103 165.78 63.2544C165.385 63.4985 165.018 63.8843 164.681 64.4116C164.345 64.9341 164.083 65.6177 163.898 66.4624L163.143 70H161.84ZM173.837 70.1465C173.242 70.1465 172.719 70.0342 172.27 69.8096C171.826 69.5801 171.479 69.2432 171.23 68.7988C170.986 68.3545 170.864 67.8027 170.864 67.1436C170.864 66.5723 170.925 66.0229 171.047 65.4956C171.174 64.9683 171.357 64.4824 171.596 64.0381C171.835 63.5938 172.126 63.2056 172.468 62.8735C172.809 62.5415 173.198 62.2852 173.632 62.1045C174.072 61.9189 174.55 61.8262 175.068 61.8262C175.414 61.8262 175.759 61.8604 176.1 61.9287C176.447 61.9922 176.76 62.085 177.038 62.207L176.694 63.2324C176.489 63.1348 176.247 63.0469 175.969 62.9688C175.69 62.8906 175.392 62.8516 175.075 62.8516C174.631 62.8516 174.225 62.9639 173.859 63.1885C173.498 63.4131 173.185 63.7256 172.922 64.126C172.663 64.5215 172.463 64.9756 172.321 65.4883C172.18 66.001 172.109 66.5479 172.109 67.1289C172.109 67.5439 172.182 67.9028 172.328 68.2056C172.475 68.5034 172.685 68.7329 172.958 68.894C173.237 69.0552 173.569 69.1357 173.954 69.1357C174.311 69.1357 174.645 69.0869 174.958 68.9893C175.275 68.8916 175.585 68.7744 175.888 68.6377V69.6777C175.619 69.8145 175.312 69.9268 174.965 70.0146C174.623 70.1025 174.247 70.1465 173.837 70.1465ZM179.873 73.6035C179.693 73.6035 179.522 73.5889 179.361 73.5596C179.2 73.5303 179.063 73.4937 178.951 73.4497V72.417C179.073 72.4658 179.209 72.5049 179.361 72.5342C179.507 72.5684 179.661 72.5854 179.822 72.5854C180.032 72.5854 180.218 72.5293 180.379 72.417C180.54 72.3096 180.679 72.146 180.796 71.9263C180.909 71.7065 181.001 71.4331 181.075 71.106L183.001 61.9727H184.209L182.247 71.2231C182.144 71.7114 181.997 72.1338 181.807 72.4902C181.622 72.8467 181.372 73.1201 181.06 73.3105C180.747 73.5059 180.352 73.6035 179.873 73.6035ZM184.012 60.5664C183.821 60.5664 183.663 60.5103 183.536 60.3979C183.409 60.2808 183.345 60.1172 183.345 59.9072C183.345 59.7461 183.377 59.5947 183.44 59.4531C183.509 59.3115 183.604 59.1992 183.726 59.1162C183.853 59.0283 184.007 58.9844 184.187 58.9844C184.402 58.9844 184.561 59.0405 184.664 59.1528C184.771 59.2651 184.825 59.4214 184.825 59.6216C184.825 59.9097 184.739 60.1392 184.568 60.3101C184.402 60.481 184.217 60.5664 184.012 60.5664ZM188.326 70.1465C187.726 70.1465 187.208 70.0269 186.773 69.7876C186.339 69.5435 186.004 69.1968 185.77 68.7476C185.541 68.2935 185.426 67.7515 185.426 67.1216C185.426 66.4722 185.519 65.835 185.704 65.21C185.895 64.5801 186.166 64.0112 186.517 63.5034C186.869 62.9907 187.291 62.583 187.784 62.2803C188.282 61.9775 188.839 61.8262 189.454 61.8262C190.191 61.8262 190.75 61.9922 191.131 62.3242C191.512 62.6514 191.703 63.103 191.703 63.6792C191.703 64.0845 191.607 64.458 191.417 64.7998C191.231 65.1416 190.943 65.4395 190.553 65.6934C190.167 65.9424 189.676 66.1377 189.081 66.2793C188.49 66.416 187.789 66.4844 186.978 66.4844H186.7C186.69 66.5723 186.681 66.6699 186.671 66.7773C186.666 66.8848 186.664 66.9849 186.664 67.0776C186.664 67.7222 186.82 68.2275 187.132 68.5938C187.445 68.9551 187.914 69.1357 188.539 69.1357C188.924 69.1357 189.288 69.082 189.63 68.9746C189.977 68.8623 190.338 68.7158 190.714 68.5352V69.5825C190.353 69.7485 189.989 69.8853 189.623 69.9927C189.256 70.0952 188.824 70.1465 188.326 70.1465ZM186.876 65.4883H187.052C187.677 65.4883 188.25 65.4346 188.773 65.3271C189.295 65.2148 189.715 65.0342 190.033 64.7852C190.35 64.5312 190.509 64.1943 190.509 63.7744C190.509 63.501 190.416 63.2764 190.23 63.1006C190.045 62.9248 189.762 62.8369 189.381 62.8369C189.044 62.8369 188.712 62.9419 188.385 63.1519C188.058 63.3569 187.76 63.6572 187.491 64.0527C187.228 64.4482 187.022 64.9268 186.876 65.4883ZM196.523 70L198.23 61.9727H199.226L199.035 63.5254H199.108C199.314 63.2471 199.533 62.9785 199.768 62.7197C200.002 62.4561 200.268 62.2412 200.566 62.0752C200.869 61.9092 201.215 61.8262 201.606 61.8262C201.753 61.8262 201.901 61.8359 202.053 61.8555C202.204 61.8701 202.346 61.897 202.478 61.936L202.214 63.0273C202.082 62.998 201.953 62.9761 201.826 62.9614C201.704 62.9468 201.577 62.9395 201.445 62.9395C201.074 62.9395 200.73 63.0371 200.412 63.2324C200.095 63.4229 199.809 63.6792 199.555 64.0015C199.306 64.3237 199.094 64.6826 198.918 65.0781C198.747 65.4736 198.618 65.8765 198.53 66.2866L197.746 70H196.523ZM205.693 70.1465C205.093 70.1465 204.575 70.0269 204.141 69.7876C203.706 69.5435 203.372 69.1968 203.137 68.7476C202.908 68.2935 202.793 67.7515 202.793 67.1216C202.793 66.4722 202.886 65.835 203.071 65.21C203.262 64.5801 203.533 64.0112 203.884 63.5034C204.236 62.9907 204.658 62.583 205.151 62.2803C205.65 61.9775 206.206 61.8262 206.821 61.8262C207.559 61.8262 208.118 61.9922 208.499 62.3242C208.879 62.6514 209.07 63.103 209.07 63.6792C209.07 64.0845 208.975 64.458 208.784 64.7998C208.599 65.1416 208.311 65.4395 207.92 65.6934C207.534 65.9424 207.044 66.1377 206.448 66.2793C205.857 66.416 205.156 66.4844 204.346 66.4844H204.067C204.058 66.5723 204.048 66.6699 204.038 66.7773C204.033 66.8848 204.031 66.9849 204.031 67.0776C204.031 67.7222 204.187 68.2275 204.5 68.5938C204.812 68.9551 205.281 69.1357 205.906 69.1357C206.292 69.1357 206.655 69.082 206.997 68.9746C207.344 68.8623 207.705 68.7158 208.081 68.5352V69.5825C207.72 69.7485 207.356 69.8853 206.99 69.9927C206.624 70.0952 206.192 70.1465 205.693 70.1465ZM204.243 65.4883H204.419C205.044 65.4883 205.618 65.4346 206.14 65.3271C206.663 65.2148 207.083 65.0342 207.4 64.7852C207.717 64.5312 207.876 64.1943 207.876 63.7744C207.876 63.501 207.783 63.2764 207.598 63.1006C207.412 62.9248 207.129 62.8369 206.748 62.8369C206.411 62.8369 206.079 62.9419 205.752 63.1519C205.425 63.3569 205.127 63.6572 204.858 64.0527C204.595 64.4482 204.39 64.9268 204.243 65.4883ZM206.221 60.9106V60.7275C206.401 60.5322 206.597 60.3052 206.807 60.0464C207.017 59.7876 207.222 59.5239 207.422 59.2554C207.627 58.9819 207.8 58.7329 207.942 58.5083H209.326V58.6548C209.219 58.7915 209.072 58.96 208.887 59.1602C208.706 59.3555 208.504 59.563 208.279 59.7827C208.059 59.9976 207.837 60.2051 207.612 60.4053C207.388 60.6006 207.178 60.769 206.983 60.9106H206.221ZM213.253 70.1465C212.657 70.1465 212.134 70.0342 211.685 69.8096C211.241 69.5801 210.894 69.2432 210.645 68.7988C210.401 68.3545 210.279 67.8027 210.279 67.1436C210.279 66.5723 210.34 66.0229 210.462 65.4956C210.589 64.9683 210.772 64.4824 211.011 64.0381C211.251 63.5938 211.541 63.2056 211.883 62.8735C212.225 62.5415 212.613 62.2852 213.048 62.1045C213.487 61.9189 213.965 61.8262 214.483 61.8262C214.83 61.8262 215.174 61.8604 215.516 61.9287C215.862 61.9922 216.175 62.085 216.453 62.207L216.109 63.2324C215.904 63.1348 215.662 63.0469 215.384 62.9688C215.106 62.8906 214.808 62.8516 214.49 62.8516C214.046 62.8516 213.641 62.9639 213.275 63.1885C212.913 63.4131 212.601 63.7256 212.337 64.126C212.078 64.5215 211.878 64.9756 211.736 65.4883C211.595 66.001 211.524 66.5479 211.524 67.1289C211.524 67.5439 211.597 67.9028 211.744 68.2056C211.89 68.5034 212.1 68.7329 212.374 68.894C212.652 69.0552 212.984 69.1357 213.37 69.1357C213.726 69.1357 214.061 69.0869 214.373 68.9893C214.691 68.8916 215.001 68.7744 215.303 68.6377V69.6777C215.035 69.8145 214.727 69.9268 214.381 70.0146C214.039 70.1025 213.663 70.1465 213.253 70.1465ZM219.266 70.1465C218.832 70.1465 218.451 70.0415 218.124 69.8315C217.797 69.6216 217.543 69.3115 217.362 68.9014C217.181 68.4912 217.091 67.9907 217.091 67.3999C217.091 66.8091 217.152 66.2402 217.274 65.6934C217.401 65.1465 217.579 64.6387 217.809 64.1699C218.038 63.7012 218.314 63.291 218.636 62.9395C218.964 62.5879 219.33 62.3145 219.735 62.1191C220.14 61.9238 220.577 61.8262 221.046 61.8262C221.407 61.8262 221.72 61.8945 221.984 62.0312C222.252 62.168 222.474 62.3486 222.65 62.5732C222.831 62.793 222.972 63.0273 223.075 63.2764H223.148L223.617 61.9727H224.547L222.848 70H221.874L222.093 68.4473H222.035C221.815 68.7402 221.564 69.0161 221.28 69.2749C220.997 69.5337 220.687 69.7437 220.35 69.9048C220.013 70.0659 219.652 70.1465 219.266 70.1465ZM219.662 69.1357C220.038 69.1357 220.409 68.999 220.775 68.7256C221.146 68.4473 221.478 68.0737 221.771 67.605C222.069 67.1313 222.296 66.5991 222.452 66.0083C222.53 65.7202 222.582 65.4565 222.606 65.2173C222.635 64.9731 222.65 64.7461 222.65 64.5361C222.65 64.0332 222.516 63.6279 222.247 63.3203C221.984 63.0078 221.622 62.8516 221.163 62.8516C220.836 62.8516 220.528 62.9346 220.24 63.1006C219.952 63.2617 219.691 63.4888 219.457 63.7817C219.227 64.0698 219.029 64.4067 218.863 64.7925C218.697 65.1733 218.568 65.5884 218.475 66.0376C218.387 66.4868 218.343 66.9482 218.343 67.4219C218.343 67.9834 218.458 68.4106 218.688 68.7036C218.917 68.9917 219.242 69.1357 219.662 69.1357ZM224.548 73.5889L227.001 61.9727H227.997L227.8 63.5327H227.851C228.08 63.23 228.332 62.9517 228.605 62.6978C228.884 62.439 229.186 62.2314 229.513 62.0752C229.845 61.9189 230.207 61.8408 230.597 61.8408C231.037 61.8408 231.42 61.9458 231.747 62.1558C232.074 62.3608 232.328 62.6685 232.509 63.0786C232.695 63.4839 232.787 63.9893 232.787 64.5947C232.787 65.1709 232.729 65.7324 232.612 66.2793C232.499 66.8213 232.333 67.3267 232.113 67.7954C231.894 68.2593 231.623 68.6694 231.301 69.0259C230.983 69.3774 230.619 69.6533 230.209 69.8535C229.799 70.0488 229.347 70.1465 228.854 70.1465C228.478 70.1465 228.154 70.0806 227.88 69.9487C227.612 69.812 227.384 69.6338 227.199 69.4141C227.018 69.1943 226.874 68.9575 226.767 68.7036H226.701C226.681 68.8843 226.65 69.1211 226.606 69.4141C226.567 69.7021 226.525 69.9438 226.481 70.1392L225.749 73.5889H224.548ZM228.766 69.1357C229.108 69.1357 229.421 69.0503 229.704 68.8794C229.992 68.7085 230.248 68.4766 230.473 68.1836C230.702 67.8857 230.895 67.5415 231.051 67.1509C231.213 66.7603 231.335 66.3452 231.418 65.9058C231.501 65.4663 231.542 65.0195 231.542 64.5654C231.542 63.999 231.427 63.5718 231.198 63.2837C230.973 62.9956 230.636 62.8516 230.187 62.8516C229.953 62.8516 229.716 62.9102 229.477 63.0273C229.238 63.1396 229.006 63.3008 228.781 63.5107C228.556 63.7158 228.346 63.96 228.151 64.2432C227.956 64.5264 227.785 64.8389 227.638 65.1807C227.497 65.5225 227.384 65.8838 227.301 66.2646C227.218 66.6455 227.177 67.0361 227.177 67.4365C227.177 67.9492 227.306 68.3618 227.565 68.6743C227.829 68.9819 228.229 69.1357 228.766 69.1357ZM233.989 70L235.696 61.9727H236.919L235.212 70H233.989ZM236.721 60.5664C236.526 60.5664 236.362 60.5103 236.23 60.3979C236.103 60.2808 236.04 60.1172 236.04 59.9072C236.04 59.7461 236.072 59.5947 236.135 59.4531C236.203 59.3115 236.299 59.1992 236.421 59.1162C236.548 59.0283 236.701 58.9844 236.882 58.9844C237.097 58.9844 237.258 59.0405 237.365 59.1528C237.473 59.2651 237.527 59.4214 237.527 59.6216C237.527 59.9097 237.444 60.1392 237.278 60.3101C237.112 60.481 236.926 60.5664 236.721 60.5664ZM240.091 70.1465C239.558 70.1465 239.114 70.0195 238.758 69.7656C238.406 69.5068 238.23 69.0649 238.23 68.4399C238.23 68.2886 238.24 68.125 238.26 67.9492C238.279 67.7686 238.311 67.583 238.355 67.3926L239.3 62.9028H238.062L238.179 62.3389L239.512 61.8262L240.391 60.127H241.116L240.713 61.9727H242.779L242.588 62.9028H240.53L239.578 67.4072C239.544 67.5439 239.512 67.6904 239.483 67.8467C239.458 68.0029 239.446 68.1519 239.446 68.2935C239.446 68.5376 239.51 68.7427 239.637 68.9087C239.763 69.0698 239.976 69.1504 240.274 69.1504C240.459 69.1504 240.635 69.1333 240.801 69.0991C240.972 69.0649 241.153 69.0161 241.343 68.9526V69.8901C241.221 69.9487 241.035 70.0049 240.786 70.0586C240.542 70.1172 240.31 70.1465 240.091 70.1465ZM245.189 70.1465C244.784 70.1465 244.43 70.0708 244.127 69.9194C243.824 69.7681 243.59 69.5459 243.424 69.2529C243.263 68.9551 243.182 68.5913 243.182 68.1616C243.182 67.9468 243.197 67.7393 243.226 67.5391C243.26 67.334 243.297 67.1216 243.336 66.9019L244.398 61.9727H245.628L244.537 67.041C244.498 67.251 244.466 67.439 244.442 67.605C244.422 67.7661 244.412 67.9102 244.412 68.0371C244.412 68.3838 244.5 68.6548 244.676 68.8501C244.857 69.0405 245.142 69.1357 245.533 69.1357C245.899 69.1357 246.283 69.0112 246.683 68.7622C247.088 68.5132 247.462 68.1226 247.804 67.5903C248.15 67.0532 248.414 66.3574 248.595 65.5029L249.342 61.9727H250.543L248.844 70H247.84L248.038 68.4473H247.972C247.786 68.7012 247.562 68.96 247.298 69.2236C247.035 69.4824 246.729 69.7021 246.383 69.8828C246.036 70.0586 245.638 70.1465 245.189 70.1465ZM251.43 70L253.861 58.6035H255.077L252.653 70H251.43ZM258.476 70.1465C257.875 70.1465 257.358 70.0269 256.923 69.7876C256.489 69.5435 256.154 69.1968 255.92 68.7476C255.69 68.2935 255.576 67.7515 255.576 67.1216C255.576 66.4722 255.668 65.835 255.854 65.21C256.044 64.5801 256.315 64.0112 256.667 63.5034C257.018 62.9907 257.441 62.583 257.934 62.2803C258.432 61.9775 258.989 61.8262 259.604 61.8262C260.341 61.8262 260.9 61.9922 261.281 62.3242C261.662 62.6514 261.852 63.103 261.852 63.6792C261.852 64.0845 261.757 64.458 261.567 64.7998C261.381 65.1416 261.093 65.4395 260.703 65.6934C260.317 65.9424 259.826 66.1377 259.23 66.2793C258.64 66.416 257.939 66.4844 257.128 66.4844H256.85C256.84 66.5723 256.83 66.6699 256.821 66.7773C256.816 66.8848 256.813 66.9849 256.813 67.0776C256.813 67.7222 256.97 68.2275 257.282 68.5938C257.595 68.9551 258.063 69.1357 258.688 69.1357C259.074 69.1357 259.438 69.082 259.78 68.9746C260.126 68.8623 260.488 68.7158 260.864 68.5352V69.5825C260.502 69.7485 260.139 69.8853 259.772 69.9927C259.406 70.0952 258.974 70.1465 258.476 70.1465ZM257.026 65.4883H257.202C257.827 65.4883 258.4 65.4346 258.923 65.3271C259.445 65.2148 259.865 65.0342 260.183 64.7852C260.5 64.5312 260.659 64.1943 260.659 63.7744C260.659 63.501 260.566 63.2764 260.38 63.1006C260.195 62.9248 259.912 62.8369 259.531 62.8369C259.194 62.8369 258.862 62.9419 258.535 63.1519C258.207 63.3569 257.91 63.6572 257.641 64.0527C257.377 64.4482 257.172 64.9268 257.026 65.4883ZM263.376 70.2051C263.147 70.2051 262.969 70.1392 262.842 70.0073C262.715 69.8804 262.651 69.6997 262.651 69.4653C262.651 69.1577 262.737 68.8867 262.908 68.6523C263.083 68.4131 263.357 68.2935 263.728 68.2935C263.933 68.2935 264.099 68.3569 264.226 68.4839C264.353 68.6108 264.416 68.7964 264.416 69.0405C264.416 69.3286 264.331 69.5947 264.16 69.8389C263.989 70.083 263.728 70.2051 263.376 70.2051ZM267.164 70.2051C266.934 70.2051 266.756 70.1392 266.629 70.0073C266.502 69.8804 266.438 69.6997 266.438 69.4653C266.438 69.1577 266.524 68.8867 266.695 68.6523C266.871 68.4131 267.144 68.2935 267.515 68.2935C267.72 68.2935 267.886 68.3569 268.013 68.4839C268.14 68.6108 268.204 68.7964 268.204 69.0405C268.204 69.3286 268.118 69.5947 267.947 69.8389C267.776 70.083 267.515 70.2051 267.164 70.2051Z" fill="black"/>
</svg>
