<svg width="340" height="134" viewBox="0 0 340 134" fill="none" xmlns="http://www.w3.org/2000/svg">
<path d="M183 134C269.709 134 340 104.003 340 67C340 29.9969 269.709 0 183 0C108.793 0 46.6112 21.9703 30.2224 51.5C26.4816 54.6667 15.2 61.2 0 62L27.1076 75C36.373 108.232 102.635 134 183 134Z" fill="#89C5CC" fill-opacity="0.2"/>
<path d="M30.5455 51.8816L30.6153 51.8226L30.6596 51.7426C38.7619 37.1437 58.2558 24.3215 85.0912 15.1495C111.901 5.98628 145.942 0.5 183 0.5C226.303 0.5 265.484 7.9914 293.82 20.0837C307.988 26.1303 319.422 33.3173 327.307 41.2725C335.19 49.2257 339.5 57.9191 339.5 67C339.5 76.0809 335.19 84.7743 327.307 92.7274C319.422 100.683 307.988 107.87 293.82 113.916C265.484 126.009 226.303 133.5 183 133.5C142.866 133.5 106.271 127.065 78.5697 116.495C64.7186 111.21 53.1061 104.896 44.3876 97.8495C35.667 90.801 29.8686 83.041 27.5892 74.8657L27.5283 74.6472L27.3238 74.5492L1.92512 62.3687C16.2816 61.1492 26.8873 54.9784 30.5455 51.8816Z" stroke="#89C5CC" stroke-opacity="0.4"/>
</svg>
